<svg width="185" height="141" viewBox="0 0 185 141" fill="none" xmlns="http://www.w3.org/2000/svg">
<path d="M25.92 90.736H54.048V106H4.8V91.696L32.64 53.488H4.8V38.32H54.048V52.624L25.92 90.736ZM73.755 47.152C70.427 47.152 67.739 46.256 65.691 44.464C63.707 42.608 62.715 40.304 62.715 37.552C62.715 34.736 63.707 32.4 65.691 30.544C67.739 28.688 70.427 27.76 73.755 27.76C77.019 27.76 79.643 28.688 81.627 30.544C83.675 32.4 84.699 34.736 84.699 37.552C84.699 40.304 83.675 42.608 81.627 44.464C79.643 46.256 77.019 47.152 73.755 47.152ZM83.067 52.144V106H64.251V52.144H83.067ZM125.558 89.968V106H117.398C103.638 106 96.7583 99.184 96.7583 85.552V67.792H90.1343V52.144H96.7583V39.088H115.67V52.144H125.462V67.792H115.67V85.84C115.67 87.312 115.99 88.368 116.63 89.008C117.334 89.648 118.486 89.968 120.086 89.968H125.558ZM157.133 106.672C152.269 106.672 147.917 105.872 144.077 104.272C140.301 102.608 137.293 100.368 135.053 97.552C132.877 94.672 131.661 91.44 131.405 87.856H149.645C149.901 89.584 150.701 90.928 152.045 91.888C153.389 92.848 155.053 93.328 157.036 93.328C158.573 93.328 159.789 93.008 160.685 92.368C161.581 91.728 162.029 90.896 162.029 89.872C162.029 88.528 161.293 87.536 159.821 86.896C158.349 86.256 155.917 85.552 152.525 84.784C148.685 84.016 145.485 83.152 142.924 82.192C140.365 81.232 138.125 79.664 136.205 77.488C134.349 75.312 133.421 72.368 133.421 68.656C133.421 65.456 134.285 62.576 136.013 60.016C137.741 57.392 140.269 55.312 143.597 53.776C146.989 52.24 151.053 51.472 155.789 51.472C162.829 51.472 168.365 53.2 172.397 56.656C176.429 60.112 178.765 64.656 179.405 70.288H162.413C162.093 68.56 161.325 67.248 160.109 66.352C158.957 65.392 157.389 64.912 155.405 64.912C153.869 64.912 152.685 65.2 151.853 65.776C151.085 66.352 150.701 67.152 150.701 68.176C150.701 69.456 151.437 70.448 152.909 71.152C154.381 71.792 156.749 72.464 160.013 73.168C163.917 74 167.149 74.928 169.709 75.952C172.333 76.976 174.605 78.64 176.525 80.944C178.509 83.184 179.5 86.256 179.5 90.16C179.5 93.296 178.573 96.112 176.717 98.608C174.925 101.104 172.333 103.088 168.941 104.56C165.613 105.968 161.677 106.672 157.133 106.672Z" fill="#01A0BB"/>
<line x1="2" y1="-2" x2="18.048" y2="-2" transform="matrix(-0.94254 -0.334094 0.350084 -0.936718 63.1351 26.4375)" stroke="black" stroke-width="4" stroke-linecap="round"/>
<line x1="2" y1="-2" x2="18.048" y2="-2" transform="matrix(0.94254 -0.334094 -0.350084 -0.936718 85.4619 26.4375)" stroke="black" stroke-width="4" stroke-linecap="round"/>
<line x1="74.3914" y1="5.91669" x2="74.3914" y2="21.5" stroke="black" stroke-width="4" stroke-linecap="round"/>
<line x1="2" y1="-2" x2="17.8478" y2="-2" transform="matrix(0.716403 -0.697686 0.716403 0.697686 82.4458 24.6183)" stroke="black" stroke-width="4" stroke-linecap="round"/>
<line x1="2" y1="-2" x2="17.8478" y2="-2" transform="matrix(-0.716403 -0.697686 0.716403 -0.697686 69.5178 21.6808)" stroke="black" stroke-width="4" stroke-linecap="round"/>
</svg>
